<svg xmlns="http://www.w3.org/2000/svg" fill="none" viewBox="0 0 18 18">
  <path fill="#2D3440" fill-rule="evenodd" d="M1.312 1.49a.667.667 0 0 0 0 1.333h2.061l.54 2.696a.659.659 0 0 0 .011.056l1.089 5.44a1.97 1.97 0 0 0 1.963 1.586h6.325a1.97 1.97 0 0 0 1.963-1.587l.001-.005 1.043-5.469a.667.667 0 0 0-.655-.791H5.12l-.545-2.724a.667.667 0 0 0-.654-.535H1.312Zm5.009 9.264-.935-4.672h9.462l-.892 4.675a.637.637 0 0 1-.636.51H6.957a.637.637 0 0 1-.637-.512v-.001Zm-1.11 4.44a1.318 1.318 0 1 1 2.635 0 1.318 1.318 0 0 1-2.636 0Zm7.17 0a1.318 1.318 0 1 1 2.635 0 1.318 1.318 0 0 1-2.636 0Z" clip-rule="evenodd"/>
</svg>
