<svg xmlns="http://www.w3.org/2000/svg" width="32" height="32" fill="none" viewBox="0 0 32 32"><g clip-path="url(#a)"><circle cx="16" cy="16" r="16" fill="#E84D37"/><path fill="#fff" d="M15.967 8.502a6.722 6.722 0 0 0-3.21.81 6.263 6.263 0 0 0-2.352 2.215 5.813 5.813 0 0 0-.868 3.028 5.81 5.81 0 0 0 .85 3.033 2.174 2.174 0 0 0-1.055.443c-.3.237-.526.55-.65.9a1.888 1.888 0 0 0-.052 1.09c.09.36.285.69.562.951.277.262.627.446 1.008.53.382.086.781.069 1.153-.048a2.12 2.12 0 0 0 .953-.614c.252-.285.414-.63.47-.996.08.043.16.084.243.124a2.786 2.786 0 0 0 1.013 1.697c.54.433 1.226.672 1.935.672.709 0 1.395-.239 1.935-.672a2.79 2.79 0 0 0 1.013-1.697c.082-.04.163-.081.243-.124.055.367.218.712.47.997.25.284.581.497.953.614.373.117.773.134 1.154.048.382-.085.731-.27 1.009-.532a1.97 1.97 0 0 0 .56-.954c.09-.36.07-.738-.054-1.09a1.995 1.995 0 0 0-.654-.899 2.174 2.174 0 0 0-1.056-.44 5.81 5.81 0 0 0 .85-3.031 5.814 5.814 0 0 0-.867-3.027 6.262 6.262 0 0 0-2.35-2.215 6.721 6.721 0 0 0-3.206-.813Zm0-1.502c1.262 0 2.506.28 3.632.82a7.915 7.915 0 0 1 2.845 2.283 7.352 7.352 0 0 1 1.44 3.254 7.169 7.169 0 0 1-.276 3.516 3.45 3.45 0 0 1 1.359 2.26 3.344 3.344 0 0 1-.673 2.521 3.728 3.728 0 0 1-2.33 1.382 3.874 3.874 0 0 1-2.697-.522c-.429.42-.943.754-1.511.983a4.831 4.831 0 0 1-3.596 0 4.614 4.614 0 0 1-1.512-.983 3.88 3.88 0 0 1-2.664.462 3.724 3.724 0 0 1-2.282-1.379 3.345 3.345 0 0 1-.674-2.478 3.448 3.448 0 0 1 1.297-2.246 7.168 7.168 0 0 1-.276-3.516 7.351 7.351 0 0 1 1.44-3.254 7.915 7.915 0 0 1 2.846-2.284A8.403 8.403 0 0 1 15.967 7Z"/><path fill="#fff" d="M10.687 23.916a4.8 4.8 0 0 0 1.818-.36c.084.063.173.121.261.181l-.12.112.886.837.38-.358c.157.058.316.11.48.154l-.537.507.884.837.891-.837-.352-.333a5.611 5.611 0 0 0 1.343.003l-.35.33.887.837.886-.837-.532-.502c.162-.044.321-.096.478-.155l.381.354.896-.837-.111-.105c.093-.062.184-.122.272-.189a4.8 4.8 0 0 0 1.819.36h.136a.706.706 0 0 1-.036.348l-4.633 12.26a.352.352 0 0 1-.018.043.264.264 0 0 1-.022.043.945.945 0 0 1-.053.086l-.02.028a.775.775 0 0 1-.093.099l-.023.017-.089.064-.04.022a.796.796 0 0 1-.098.043h-.025l-.091.021h-.037a.76.76 0 0 1-.254 0h-.039l-.088-.021h-.04a.93.93 0 0 1-.095-.043l-.04-.024a.497.497 0 0 1-.09-.062l-.024-.017a.964.964 0 0 1-.093-.099l-.019-.028a.695.695 0 0 1-.054-.086l-.041-.086-4.641-12.266a.682.682 0 0 1-.037-.348c.046 0 .08.007.137.007Zm3.182 3.354.886.838.875-.838-.884-.837-.877.837Zm2.975 1.14-.886-.837-.887.837.887.837.886-.837Zm-1.773 2.282.887.837.886-.837-.886-.837-.887.837Zm.887-5.398-.887.837.887.83.886-.837-.886-.83Zm.32 1.976.887.838.886-.838-.886-.837-.887.837Zm3.389-3.035-.086-.081-.887.835.507.47.466-1.224Zm-.627 1.681-.66-.622-.884.837.875.83.407-.384.262-.66Zm-.644 1.69-.025-.024-.884.837.444.429.465-1.243Zm-.947 2.521.322-.858-.597-.563-.887.838.878.852.284-.269Zm-.78 2.065.425-1.12-.807.76.382.36Zm-.693 1.837.525-1.39-.534-.505-.52.492.529 1.403Zm-.7-1.85.354-.348-.775-.734.42 1.082Zm-.782-2.024.257.24.88-.845-.885-.835-.584.55.332.89Zm-.505-1.337.43-.408-.887-.837v.01l.457 1.235Zm-.834-2.209.386.352.887-.837-.887-.837-.638.616.252.706Zm-.427-1.15.493-.468-.886-.837-.073.069.466 1.236Z"/></g><defs><clipPath id="a"><rect width="32" height="32" fill="#fff" rx="16"/></clipPath></defs></svg>