<svg xmlns="http://www.w3.org/2000/svg" fill="none" viewBox="0 0 18 18">
  <path fill="#2D3440" fill-rule="evenodd" d="M10.208 1.875c0-.368.299-.667.667-.667h3a2.167 2.167 0 0 1 2.167 2.167v10.5a2.167 2.167 0 0 1-2.167 2.167h-3a.667.667 0 1 1 0-1.334h3a.833.833 0 0 0 .833-.833v-10.5a.834.834 0 0 0-.833-.833h-3a.667.667 0 0 1-.667-.667ZM6.654 4.404c.26-.26.682-.26.942 0l3.746 3.745a.665.665 0 0 1 0 .952l-3.746 3.745a.667.667 0 0 1-.942-.942l2.611-2.612h-7.39a.667.667 0 0 1 0-1.334h7.39L6.654 5.346a.667.667 0 0 1 0-.942Z" clip-rule="evenodd"/>
</svg>
